<svg xmlns="http://www.w3.org/2000/svg" viewBox="0 0 64 64" fill="none">
  <ellipse cx="32" cy="57" rx="17" ry="3" fill="#101820" opacity=".28"/>
  <path d="M12 18 23 24c3-2 6-3 9-3s6 1 9 3l11-6-4 17c2 10-4 20-16 23-12-3-18-13-16-23z" fill="#243448" stroke="#101820" stroke-width="2" stroke-linejoin="round"/>
  <path d="M16 17 20 4l11 10 2 8H20zM48 17 44 4 33 14l-2 8h12z" fill="#172437" stroke="#101820" stroke-width="2" stroke-linejoin="round"/>
  <path d="M21 29c3-7 19-7 22 0l7 5-7 13c-6 5-16 5-22 0l-7-13z" fill="#30465c"/>
  <path d="M23 38c3-3 6-4 9-4s6 1 9 4l-2 10c-4 3-10 3-14 0z" fill="#d6e0e5"/>
  <circle cx="25" cy="27" r="4" fill="#e8b84a" stroke="#101820" stroke-width="1.5"/><circle cx="39" cy="27" r="4" fill="#e8b84a" stroke="#101820" stroke-width="1.5"/>
  <circle cx="25" cy="27" r="1.7" fill="#111827"/><circle cx="39" cy="27" r="1.7" fill="#111827"/>
  <path d="M29 42h6M19 50h26" stroke="#c9a227" stroke-width="3" stroke-linecap="round"/>
</svg>
