<svg xmlns="http://www.w3.org/2000/svg" viewBox="0 0 64 64" fill="none">
  <defs>
    <linearGradient id="aurora-wool" x1="12" y1="9" x2="52" y2="49" gradientUnits="userSpaceOnUse">
      <stop stop-color="#ecfff9"/><stop offset=".52" stop-color="#eee8ff"/><stop offset="1" stop-color="#ffe9bc"/>
    </linearGradient>
  </defs>
  <ellipse cx="32" cy="57" rx="17" ry="3" fill="#243047" opacity=".2"/>
  <path d="M16 41c-6-1-8-8-4-12-3-6 2-12 8-11 1-7 10-9 15-4 5-4 14-1 14 6 7 1 9 9 4 13 3 6-2 12-8 12H20z" fill="url(#aurora-wool)" stroke="#775d91" stroke-width="2" stroke-linejoin="round"/>
  <path d="M23 28c0-7 4-11 9-11s10 4 10 11v14c-3 5-17 5-19 0z" fill="#4e527f" stroke="#252d51" stroke-width="2"/>
  <path d="m22 28-7-5 2 9zm21 0 7-5-2 9z" fill="#7de4cf" stroke="#255367" stroke-width="1.5" stroke-linejoin="round"/>
  <circle cx="28" cy="31" r="3" fill="#ffe58e"/><circle cx="37" cy="31" r="3" fill="#ffe58e"/>
  <circle cx="28" cy="31" r="1.2" fill="#252d51"/><circle cx="37" cy="31" r="1.2" fill="#252d51"/>
  <path d="M29 39c2 2 5 2 7 0" stroke="#252d51" stroke-width="1.8" stroke-linecap="round"/>
  <path d="M19 45v11m8-10v11m11-11v11m8-12v11" stroke="#263552" stroke-width="3.5" stroke-linecap="round"/>
  <path d="M18 20c5-4 11-6 16-5m14 7c-4-4-7-5-11-6" stroke="#9ee8d9" stroke-width="2" stroke-linecap="round" opacity=".75"/>
</svg>
