<svg xmlns="http://www.w3.org/2000/svg" viewBox="0 0 64 64" fill="none">
  <defs>
    <linearGradient id="aurora-fur" x1="13" y1="8" x2="51" y2="55" gradientUnits="userSpaceOnUse">
      <stop stop-color="#176273"/><stop offset=".55" stop-color="#243c70"/><stop offset="1" stop-color="#6b326f"/>
    </linearGradient>
    <linearGradient id="aurora-mark" x1="22" y1="28" x2="44" y2="50" gradientUnits="userSpaceOnUse">
      <stop stop-color="#7de7d0"/><stop offset=".5" stop-color="#c4a8ff"/><stop offset="1" stop-color="#ffd47b"/>
    </linearGradient>
  </defs>
  <ellipse cx="32" cy="57" rx="18" ry="3" fill="#13253b" opacity=".28"/>
  <path d="M13 17 24 22c3-2 5-3 8-3s6 1 8 3l11-6-3 17c2 11-5 20-16 23-11-3-18-12-16-23z" fill="url(#aurora-fur)" stroke="#13243e" stroke-width="2.2" stroke-linejoin="round"/>
  <path d="M19 18 22 5l10 10L42 5l3 14-7 7H26z" fill="#245f70" stroke="#13243e" stroke-width="2" stroke-linejoin="round"/>
  <path d="m23 10 7 6-5 4zm18 0-7 6 5 4z" fill="#9ef3df"/>
  <path d="M19 33c5-7 21-7 26 0l3 5-6 12c-6 4-14 4-20 0l-6-12z" fill="#273f6c"/>
  <path d="M24 39c2-4 6-6 8-6s6 2 8 6l-3 10H27z" fill="url(#aurora-mark)" opacity=".92"/>
  <path d="m23 46-6 7m13-6v10m8-10 6 7m4-13 7 5" stroke="#17283e" stroke-width="3.4" stroke-linecap="round"/>
  <circle cx="26" cy="29" r="3.5" fill="#ffe58e" stroke="#13243e" stroke-width="1.5"/><circle cx="39" cy="29" r="3.5" fill="#ffe58e" stroke="#13243e" stroke-width="1.5"/>
  <circle cx="26" cy="29" r="1.3" fill="#172238"/><circle cx="39" cy="29" r="1.3" fill="#172238"/>
  <path d="M29 42h6" stroke="#172238" stroke-width="2" stroke-linecap="round"/>
  <path d="m20 29-5-3m34 3 5-3M23 36l-5 2m28-2 5 2" stroke="#8debd8" stroke-width="1.4" stroke-linecap="round" opacity=".8"/>
</svg>
