<svg xmlns="http://www.w3.org/2000/svg" viewBox="0 0 512 512">
  <defs>
    <linearGradient id="g-autumn-harvest" x1="0" y1="0" x2="0.3" y2="1">
      <stop offset="0%" stop-color="#f5dfb8"/>
      <stop offset="55%" stop-color="#dfa765"/>
      <stop offset="100%" stop-color="#af7040"/>
    </linearGradient>
    <pattern id="p-autumn-harvest" width="32" height="28" patternUnits="userSpaceOnUse">
      
    <path d="M6 24c2-6 4-6 5 0M12 26c1-5 3-5 4 0M18 23c2-7 4-6 5 1M24 25c1-4 3-5 3 0" stroke="#8f3f35" stroke-width="1.4" opacity="0.4" stroke-linecap="round" fill="none"/>
    <circle cx="8" cy="10" r="1.8" fill="#8f3f35" opacity="0.35"/>
    <circle cx="20" cy="14" r="1.2" fill="#af7040" opacity="0.25"/>
    
    </pattern>
    <radialGradient id="v-autumn-harvest" cx="50%" cy="40%" r="70%">
      <stop offset="0%" stop-color="#ffffff" stop-opacity="0.14"/>
      <stop offset="100%" stop-color="#000000" stop-opacity="0.1"/>
    </radialGradient>
  </defs>
  <rect width="512" height="512" rx="16" fill="url(#g-autumn-harvest)"/>
  <rect width="512" height="512" rx="16" fill="url(#p-autumn-harvest)"/>
  <g fill="#8f3f35" opacity=".3"><path d="M65 95q35-28 58 5q-35 28-58-5M390 390q35-30 58 3q-35 30-58-3M390 90q22-25 42 0q-22 25-42 0"/></g>
  <rect width="512" height="512" rx="16" fill="url(#v-autumn-harvest)"/>
  <rect x="20" y="20" width="472" height="472" rx="10" fill="none" stroke="#693d27" stroke-width="4" opacity="0.4"/>
</svg>
