<svg xmlns="http://www.w3.org/2000/svg" viewBox="0 0 512 512">
  <defs>
    <linearGradient id="g-default" x1="0" y1="0" x2="0.3" y2="1">
      <stop offset="0%" stop-color="#eff4dc"/>
      <stop offset="55%" stop-color="#d5e6b8"/>
      <stop offset="100%" stop-color="#a9c77f"/>
    </linearGradient>
    <pattern id="p-default" width="32" height="28" patternUnits="userSpaceOnUse">
      
    <path d="M6 24c2-6 4-6 5 0M12 26c1-5 3-5 4 0M18 23c2-7 4-6 5 1M24 25c1-4 3-5 3 0" stroke="#7a9a58" stroke-width="1.4" opacity="0.4" stroke-linecap="round" fill="none"/>
    <circle cx="8" cy="10" r="1.8" fill="#7a9a58" opacity="0.35"/>
    <circle cx="20" cy="14" r="1.2" fill="#b5cc9a" opacity="0.25"/>
    
    </pattern>
    <radialGradient id="v-default" cx="50%" cy="40%" r="70%">
      <stop offset="0%" stop-color="#ffffff" stop-opacity="0.14"/>
      <stop offset="100%" stop-color="#000000" stop-opacity="0.1"/>
    </radialGradient>
  </defs>
  <rect width="512" height="512" rx="16" fill="url(#g-default)"/>
  <rect width="512" height="512" rx="16" fill="url(#p-default)"/>
  <rect width="512" height="512" rx="16" fill="url(#v-default)"/>
  <path d="M0 416c92-44 168-22 246-52 86-34 164-8 266-58v206H0z" fill="#739b58" opacity=".16"/>
  <rect x="20" y="20" width="472" height="472" rx="10" fill="none" stroke="#4a5c3e" stroke-width="5" opacity="0.55"/>
</svg>
