<svg xmlns="http://www.w3.org/2000/svg" viewBox="0 0 512 512">
  <defs>
    <linearGradient id="g-spring-blossom" x1="0" y1="0" x2="0.3" y2="1">
      <stop offset="0%" stop-color="#edf7df"/>
      <stop offset="55%" stop-color="#cce8b6"/>
      <stop offset="100%" stop-color="#9fc77e"/>
    </linearGradient>
    <pattern id="p-spring-blossom" width="32" height="28" patternUnits="userSpaceOnUse">
      
    <path d="M6 24c2-6 4-6 5 0M12 26c1-5 3-5 4 0M18 23c2-7 4-6 5 1M24 25c1-4 3-5 3 0" stroke="#d86f91" stroke-width="1.4" opacity="0.4" stroke-linecap="round" fill="none"/>
    <circle cx="8" cy="10" r="1.8" fill="#d86f91" opacity="0.35"/>
    <circle cx="20" cy="14" r="1.2" fill="#9fc77e" opacity="0.25"/>
    
    </pattern>
    <radialGradient id="v-spring-blossom" cx="50%" cy="40%" r="70%">
      <stop offset="0%" stop-color="#ffffff" stop-opacity="0.14"/>
      <stop offset="100%" stop-color="#000000" stop-opacity="0.1"/>
    </radialGradient>
  </defs>
  <rect width="512" height="512" rx="16" fill="url(#g-spring-blossom)"/>
  <rect width="512" height="512" rx="16" fill="url(#p-spring-blossom)"/>
  <g fill="#d86f91" opacity=".32"><circle cx="80" cy="90" r="6"/><circle cx="432" cy="130" r="5"/><path d="M70 90q10-18 20 0q-10 18-20 0M420 130q10-16 20 0q-10 16-20 0"/></g>
  <rect width="512" height="512" rx="16" fill="url(#v-spring-blossom)"/>
  <rect x="20" y="20" width="472" height="472" rx="10" fill="none" stroke="#41683c" stroke-width="4" opacity="0.4"/>
</svg>
