<svg xmlns="http://www.w3.org/2000/svg" viewBox="0 0 64 64" fill="none">
  <ellipse cx="32" cy="58" rx="16" ry="3" fill="#1a1f18" opacity=".18"/>
  <path d="M13 35c-4-6 0-13 7-13 1-8 12-11 17-4 7-5 16 1 15 9 7 3 6 13-1 16-1 8-12 10-17 3-7 4-17 0-17-7z" fill="#fffaf0" stroke="#8a8978" stroke-width="2"/>
  <path d="M22 38c5 3 15 3 20 0l-2 10c-5 3-11 3-16 0z" fill="#9abf78" stroke="#527b45" stroke-width="1.5"/>
  <path d="M22 48v9M29 49v9M35 49v9M42 48v9" stroke="#343b32" stroke-width="3.5" stroke-linecap="round"/>
  <ellipse cx="27" cy="31" rx="3" ry="4" fill="#3a342e"/><ellipse cx="37" cy="31" rx="3" ry="4" fill="#3a342e"/>
  <circle cx="27" cy="30" r="1" fill="#fffaf0"/><circle cx="37" cy="30" r="1" fill="#fffaf0"/>
  <path d="M30 37c1 1 3 1 4 0M16 25 10 21M48 25l6-4" stroke="#3a342e" stroke-width="1.5" stroke-linecap="round"/>
</svg>
