<svg xmlns="http://www.w3.org/2000/svg" viewBox="0 0 512 512">
  <defs>
    <linearGradient id="g-autumn" x1="0" y1="0" x2="0.3" y2="1">
      <stop offset="0%" stop-color="#f2dcb8"/>
      <stop offset="55%" stop-color="#e4b878"/>
      <stop offset="100%" stop-color="#c88848"/>
    </linearGradient>
    <pattern id="p-autumn" width="32" height="28" patternUnits="userSpaceOnUse">
      
    <path d="M6 24c2-6 4-6 5 0M12 26c1-5 3-5 4 0M18 23c2-7 4-6 5 1M24 25c1-4 3-5 3 0" stroke="#c47848" stroke-width="1.4" opacity="0.4" stroke-linecap="round" fill="none"/>
    <circle cx="8" cy="10" r="1.8" fill="#c47848" opacity="0.35"/>
    <circle cx="20" cy="14" r="1.2" fill="#c88848" opacity="0.25"/>
    
    </pattern>
    <radialGradient id="v-autumn" cx="50%" cy="40%" r="70%">
      <stop offset="0%" stop-color="#ffffff" stop-opacity="0.14"/>
      <stop offset="100%" stop-color="#000000" stop-opacity="0.1"/>
    </radialGradient>
  </defs>
  <rect width="512" height="512" rx="16" fill="url(#g-autumn)"/>
  <rect width="512" height="512" rx="16" fill="url(#p-autumn)"/>
  <rect width="512" height="512" rx="16" fill="url(#v-autumn)"/>
  <rect x="20" y="20" width="472" height="472" rx="10" fill="none" stroke="#7a4020" stroke-width="4" opacity="0.4"/>
</svg>
