<svg xmlns="http://www.w3.org/2000/svg" viewBox="0 0 364 364">
  <defs><linearGradient id="sky" x1="0" x2="0" y1="0" y2="1"><stop stop-color="#17243c"/><stop offset="1" stop-color="#354d62"/></linearGradient><pattern id="stars" width="52" height="52" patternUnits="userSpaceOnUse"><circle cx="8" cy="11" r="1.3" fill="#f5d77b" opacity=".8"/><circle cx="38" cy="31" r="1" fill="#f5e6b3" opacity=".7"/></pattern></defs>
  <rect width="364" height="364" rx="14" fill="url(#sky)"/><rect width="364" height="364" rx="14" fill="url(#stars)" opacity=".8"/>
  <circle cx="305" cy="55" r="25" fill="#f6e8bb" opacity=".95"/><circle cx="316" cy="49" r="25" fill="#17243c"/>
  <path d="M20 58h324M20 114h324M20 170h324M20 226h324M20 282h324M20 338h324M20 58v280M76 58v280M132 58v280M188 58v280M244 58v280M300 58v280M356 58v280" stroke="#b7c8d4" stroke-width="2" opacity=".72"/>
  <path d="M28 320c60-30 105-11 158-25 55-15 95-1 150-28v75H28z" fill="#1c3040" opacity=".72"/>
</svg>
