<svg xmlns="http://www.w3.org/2000/svg" width="800" height="1200" viewBox="0 0 800 1200">
  <defs>
    <linearGradient id="field" y2="1"><stop stop-color="#eef4df"/><stop offset="1" stop-color="#91b96e"/></linearGradient>
    <pattern id="grass" width="52" height="52" patternUnits="userSpaceOnUse"><path d="M9 37l5-10 3 10M38 17l4-8 3 8" fill="none" stroke="#6f9959" stroke-width="2.5" opacity=".3"/></pattern>
    <filter id="shadow"><feDropShadow dx="0" dy="13" stdDeviation="12" flood-color="#172437" flood-opacity=".25"/></filter>
  </defs>
  <rect width="800" height="1200" fill="url(#field)"/><rect width="800" height="1200" fill="url(#grass)"/>
  <text x="400" y="132" text-anchor="middle" fill="#172437" font-family="Georgia, serif" font-size="104" font-weight="700">Fangrush</text>
  <g stroke="#526c45" stroke-width="6" opacity=".5"><path d="M70 220v910M202 220v910M334 220v910M466 220v910M598 220v910M730 220v910"/><path d="M70 220h660M70 402h660M70 584h660M70 766h660M70 948h660M70 1130h660"/></g>
  <g filter="url(#shadow)">
    <image href="../../../../packages/web-assets/public/skins/default/sheep.svg" x="70" y="230" width="190" height="190"/>
    <image href="../../../../packages/web-assets/public/skins/default/sheep.svg" x="305" y="270" width="180" height="180"/>
    <image href="../../../../packages/web-assets/public/skins/default/sheep.svg" x="535" y="225" width="190" height="190"/>
    <image href="../../../../packages/web-assets/public/skins/default/wolf.svg" x="160" y="690" width="475" height="475"/>
  </g>
  <g fill="#6e665c" stroke="#3f3a34" stroke-width="6"><path d="M105 615l24-44 55-10 42 35-6 57-47 27-54-17z"/><path d="M565 570l27-41 51 4 31 42-18 50-55 10-39-33z"/></g>
  <path d="M400 755c-8-105 40-190 130-250" fill="none" stroke="#c9a227" stroke-width="14" stroke-linecap="round" stroke-dasharray="2 28"/>
</svg>
