<svg xmlns="http://www.w3.org/2000/svg" width="800" height="800" viewBox="0 0 800 800">
  <defs>
    <linearGradient id="field" x2="1" y2="1"><stop stop-color="#eef4df"/><stop offset="1" stop-color="#91b96e"/></linearGradient>
    <pattern id="grass" width="48" height="48" patternUnits="userSpaceOnUse"><path d="M8 35l5-9 3 9M35 16l4-7 3 7" fill="none" stroke="#6f9959" stroke-width="2.5" opacity=".28"/></pattern>
    <filter id="shadow"><feDropShadow dx="0" dy="12" stdDeviation="10" flood-color="#172437" flood-opacity=".25"/></filter>
  </defs>
  <rect width="800" height="800" fill="url(#field)"/><rect width="800" height="800" fill="url(#grass)"/>
  <g stroke="#526c45" stroke-width="5" opacity=".48"><path d="M60 60v680M196 60v680M332 60v680M468 60v680M604 60v680M740 60v680"/><path d="M60 60h680M60 196h680M60 332h680M60 468h680M60 604h680M60 740h680"/></g>
  <text x="400" y="110" text-anchor="middle" fill="#172437" font-family="Georgia, serif" font-size="86" font-weight="700">Fangrush</text>
  <g filter="url(#shadow)">
    <image href="../../../../packages/web-assets/public/skins/default/wolf.svg" x="60" y="355" width="370" height="370"/>
    <image href="../../../../packages/web-assets/public/skins/default/sheep.svg" x="440" y="155" width="170" height="170"/>
    <image href="../../../../packages/web-assets/public/skins/default/sheep.svg" x="590" y="305" width="155" height="155"/>
    <image href="../../../../packages/web-assets/public/skins/default/sheep.svg" x="430" y="430" width="160" height="160"/>
  </g>
  <path d="M390 535c90-94 126-116 205-129" fill="none" stroke="#c9a227" stroke-width="12" stroke-linecap="round" stroke-dasharray="2 24"/>
</svg>
