<svg xmlns="http://www.w3.org/2000/svg" viewBox="0 0 64 64" fill="none">
  <ellipse cx="32" cy="58" rx="16" ry="3" fill="#172432" opacity=".2"/>
  <path d="M13 37c-2-7 3-13 10-13 2-7 11-10 16-4 7-3 14 2 13 9 5 4 3 12-3 14-2 7-11 8-16 3-6 4-16 0-16-6-3 0-4-1-4-3z" fill="#eaf7fb" stroke="#536f7e" stroke-width="2" stroke-linejoin="round"/>
  <path d="M23 39c4 2 14 2 19 0l-2 9c-5 3-11 3-16 0z" fill="#a9cfdd" stroke="#5d8292" stroke-width="1.3"/>
  <path d="M24 48v9M31 49v9M37 49v9M43 47v10" stroke="#294453" stroke-width="3.5" stroke-linecap="round"/>
  <path d="M24 25c-3-3-5-6-3-9 4 0 7 2 8 5M40 24c2-4 5-6 8-5 1 4-1 7-5 9" fill="#cce6ee" stroke="#536f7e" stroke-width="1.5" stroke-linejoin="round"/>
  <path d="M27 31c2-2 4-3 5-3s4 1 5 3l-1 8h-8z" fill="#405967"/>
  <circle cx="29" cy="32" r="1.1" fill="#eaf7fb"/><circle cx="35" cy="32" r="1.1" fill="#eaf7fb"/>
  <path d="M31 36h2M18 29 14 26M47 29l4-3" stroke="#d9f5fb" stroke-width="1.5" stroke-linecap="round"/>
</svg>
