<svg xmlns="http://www.w3.org/2000/svg" viewBox="0 0 64 64" fill="none">
  <ellipse cx="33" cy="57" rx="17" ry="3" fill="#172432" opacity=".3"/>
  <path d="M15 20 24 24c3-2 6-3 9-3s6 1 9 3l9-5-3 16c2 10-4 18-15 21-11-3-18-11-16-21z" fill="#38586c" stroke="#1d3040" stroke-width="2" stroke-linejoin="round"/>
  <path d="M20 19 23 5l10 10 8-10 3 15-7 7H27z" fill="#4d7186" stroke="#1d3040" stroke-width="2" stroke-linejoin="round"/>
  <path d="m24 10 7 6-5 4zM40 10l-6 6 4 4z" fill="#b8d9e5"/>
  <path d="M20 31c4-6 20-6 24 0l4 5-5 12c-6 5-16 5-22 0l-5-12z" fill="#50778c"/>
  <path d="M24 38c3-3 6-4 9-4s6 1 9 4l-3 10c-4 3-8 3-12 0z" fill="#c9e3eb" opacity=".9"/>
  <path d="M23 44 19 51M31 47v10M40 47l4 9M48 42l6 5" stroke="#203646" stroke-width="3.5" stroke-linecap="round"/>
  <path d="M22 30 17 26M45 30l5-5M26 42l-4 4M42 42l4 4" stroke="#d7f1f6" stroke-width="1.5" stroke-linecap="round" opacity=".8"/>
  <circle cx="27" cy="28" r="3.2" fill="#d8f6ff" stroke="#1d3040" stroke-width="1.5"/>
  <circle cx="39" cy="28" r="3.2" fill="#d8f6ff" stroke="#1d3040" stroke-width="1.5"/>
  <circle cx="27" cy="28" r="1.2" fill="#172432"/><circle cx="39" cy="28" r="1.2" fill="#172432"/>
  <path d="M30 41h4" stroke="#1d3040" stroke-width="2" stroke-linecap="round"/>
</svg>
